<?xml version="1.0" standalone="no"?>
<!DOCTYPE svg PUBLIC "-//W3C//DTD SVG 20010904//EN"
 "http://www.w3.org/TR/2001/REC-SVG-20010904/DTD/svg10.dtd">
<svg version="1.0" xmlns="http://www.w3.org/2000/svg"
 width="1280.000000pt" height="1191.000000pt" viewBox="0 0 1280.000000 1191.000000"
 preserveAspectRatio="xMidYMid meet">
<metadata>
Created by potrace 1.15, written by Peter Selinger 2001-2017
</metadata>
<g transform="translate(0.000000,1191.000000) scale(0.100000,-0.100000)"
fill="#000000" stroke="none">
<path d="M11285 11873 c-71 -19 -173 -55 -225 -80 -483 -231 -1191 -458 -2350
-751 -568 -144 -1079 -264 -2360 -553 -604 -136 -711 -160 -1140 -259 -427
-99 -488 -115 -635 -170 -499 -186 -705 -375 -705 -650 0 -27 14 -129 31 -227
62 -359 49 -515 -62 -737 -116 -233 -375 -494 -749 -753 -161 -112 -198 -119
-915 -163 -611 -38 -879 -89 -1152 -220 -199 -94 -356 -220 -499 -398 -232
-290 -251 -504 -76 -865 l47 -97 104 69 c59 40 110 67 116 63 7 -4 80 -59 163
-122 98 -74 147 -117 139 -122 -7 -5 -130 -47 -274 -93 -316 -103 -421 -153
-507 -239 -102 -102 -170 -258 -211 -483 -36 -193 -30 -903 11 -1338 109
-1177 451 -2152 984 -2804 145 -177 253 -276 433 -398 134 -90 170 -120 232
-192 150 -178 292 -291 362 -291 65 0 110 53 120 141 3 27 7 49 9 49 1 0 29
-26 61 -58 36 -36 70 -61 88 -64 43 -9 89 14 119 59 33 47 75 176 83 254 3 33
7 59 9 59 2 0 36 -22 76 -49 40 -27 96 -57 125 -66 50 -16 54 -16 90 1 31 15
41 29 56 69 15 43 17 71 12 205 -4 85 -12 198 -19 250 l-12 95 51 56 c31 34
60 79 74 115 22 59 61 258 61 317 0 44 7 52 68 71 72 24 151 98 185 173 48
108 57 232 31 438 -8 66 -17 154 -20 195 l-6 75 50 23 c120 54 197 162 232
328 10 49 19 90 19 91 1 1 25 -9 53 -22 29 -14 67 -25 83 -25 71 0 135 79 176
215 12 39 28 75 35 81 8 6 61 14 119 18 167 11 189 25 236 157 22 62 37 89 48
89 54 0 197 23 231 36 82 33 131 124 151 286 7 51 13 94 13 95 1 1 39 7 85 13
110 15 154 34 191 81 32 39 114 205 108 217 -2 4 -91 93 -199 197 -108 105
-197 193 -198 196 0 3 41 -4 91 -16 217 -52 765 -169 793 -169 17 1 98 13 180
28 119 22 191 29 350 33 249 7 409 -9 855 -82 275 -45 559 -85 608 -85 7 0 24
-26 38 -57 36 -81 107 -187 163 -243 96 -96 232 -162 391 -191 117 -21 406
-16 690 12 200 19 300 24 540 23 l295 0 175 -41 c96 -23 452 -105 790 -182
338 -77 783 -178 989 -225 337 -78 383 -86 475 -86 185 0 290 42 411 164 62
63 90 100 123 167 45 91 86 234 97 339 l6 65 -168 58 c-769 267 -1700 633
-2648 1040 -292 125 -389 168 -1115 490 -398 176 -632 275 -748 317 -34 13
-64 26 -66 29 -2 3 14 61 35 128 l39 122 35 -20 c46 -27 72 -18 96 36 21 47
39 153 39 233 l0 52 38 0 c54 0 103 30 132 81 63 110 8 408 -131 717 -15 34
-26 62 -24 62 2 0 43 -23 92 -51 136 -79 274 -146 316 -154 52 -10 77 13 77
70 0 35 -32 182 -55 257 -6 15 -1 18 35 18 95 0 110 32 110 228 l0 149 -112
100 c-62 55 -187 166 -278 247 -277 248 -482 408 -695 544 -92 58 -97 63 -60
57 266 -45 612 -189 1113 -462 132 -73 206 -107 235 -110 85 -10 84 42 -3 187
-27 46 -50 85 -50 87 0 2 18 -8 41 -23 23 -14 56 -28 74 -31 71 -11 53 55 -58
222 -37 54 -65 100 -64 102 2 1 20 -2 41 -8 49 -14 103 -4 116 21 22 42 6 98
-57 203 -19 32 -34 60 -32 61 2 2 33 18 69 36 148 74 251 156 270 216 13 37 0
71 -52 136 -15 20 -35 52 -43 72 -15 35 -15 37 7 45 13 4 49 18 81 30 84 31
155 68 214 112 49 37 77 80 121 190 9 23 38 34 328 123 444 136 599 196 670
258 62 55 36 114 -63 141 -24 6 -43 14 -43 17 0 3 122 46 272 95 314 104 318
107 294 188 -14 46 -13 48 8 62 34 22 98 43 271 86 186 46 442 129 500 162 51
29 58 60 18 80 -42 22 -131 37 -297 50 l-149 12 56 38 c32 20 125 74 207 118
159 86 181 102 162 121 -10 10 -154 26 -257 28 -39 0 -38 1 45 37 114 49 162
80 158 101 -3 15 -16 17 -98 15 -143 -2 -558 -86 -1315 -265 -165 -39 -311
-73 -325 -75 -14 -2 112 43 280 100 561 192 549 187 685 290 251 189 332 270
305 302 -18 21 -49 18 -195 -22z"/>
</g>
</svg>
